<?xml version="1.0" encoding="UTF-8"?>
<svg width="190px" height="50px" viewBox="0 0 190 50" version="1.1" xmlns="http://www.w3.org/2000/svg" xmlns:xlink="http://www.w3.org/1999/xlink">
    <!-- Generator: Sketch 43.2 (39069) - http://www.bohemiancoding.com/sketch -->
    <title>logo-incharge</title>
    <desc>Created with Sketch.</desc>
    <defs></defs>
    <g id="Page-1" stroke="none" stroke-width="1" fill="none" fill-rule="evenodd">
        <g id="logo-incharge">
            <rect id="Rectangle" fill="#FF3366" x="0" y="0" width="190" height="50" rx="4"></rect>
            <path d="M175.715068,23.7134856 C173.954807,26.2184721 166.400652,34.0078041 166.079957,34.3320626 C165.709375,34.7917259 164.686714,35.5578313 163.717501,34.9235673 C163.436002,34.7418399 163.104617,34.3819486 163.104617,33.6621658 C163.104617,32.9744526 163.418186,32.268923 163.453819,32.1940941 L167.134688,24.0448707 C166.446975,23.7669348 165.256839,23.2930185 164.337512,22.8903677 L164.095209,22.7870326 C163.16163,22.3915084 162,21.8962123 162,20.6241211 C162,20.0112368 162.288626,19.2950173 162.887257,18.454083 C164.651081,15.94197 172.201673,8.15976454 172.525932,7.82837941 C172.89295,7.37584274 173.915611,6.60973735 174.888387,7.23687479 C175.166323,7.41860211 175.497708,7.78562004 175.497708,8.49827622 C175.497708,9.18598943 175.184139,9.89151905 175.148506,9.97347451 L171.464074,18.1155713 C172.158914,18.3935072 173.345486,18.8745502 174.268376,19.2700743 L174.510679,19.3734095 C175.444259,19.7689337 176.605888,20.2642297 176.605888,21.5434475 C176.605888,22.1563319 176.313699,22.8654248 175.715068,23.7134856 Z" id="Shape" fill="#FFFFFF" fill-rule="nonzero"></path>
            <path d="M23.615,21.019 L21.3395,40 L16.8255,40 L19.101,21.019 L23.615,21.019 Z M24.762,15.4875 C24.762,15.8821686 24.6787508,16.2521649 24.51225,16.5975 C24.3457492,16.9428351 24.129918,17.2449987 23.86475,17.504 C23.599582,17.7630013 23.2943351,17.9695826 22.949,18.12375 C22.6036649,18.2779174 22.2460019,18.355 21.876,18.355 C21.5183315,18.355 21.1699184,18.2779174 20.83075,18.12375 C20.4915816,17.9695826 20.1925013,17.7630013 19.9335,17.504 C19.6744987,17.2449987 19.4679174,16.9428351 19.31375,16.5975 C19.1595826,16.2521649 19.0825,15.8821686 19.0825,15.4875 C19.0825,15.0928314 19.1626659,14.7166685 19.323,14.359 C19.4833341,14.0013315 19.6929987,13.689918 19.952,13.42475 C20.2110013,13.159582 20.5100816,12.9499174 20.84925,12.79575 C21.1884184,12.6415826 21.5368315,12.5645 21.8945,12.5645 C22.2645019,12.5645 22.6221649,12.6415826 22.9675,12.79575 C23.3128351,12.9499174 23.618082,13.1564987 23.88325,13.4155 C24.148418,13.6745013 24.3611659,13.9828315 24.5215,14.3405 C24.6818341,14.6981685 24.762,15.080498 24.762,15.4875 Z M25.946,40 L28.2215,21.0005 L30.5525,21.0005 C31.0335024,21.0005 31.406582,21.1176655 31.67175,21.352 C31.936918,21.5863345 32.0695,21.9624974 32.0695,22.4805 L31.94,24.941 C32.9020048,23.5226596 33.9688275,22.4650868 35.1405,21.76825 C36.3121725,21.0714132 37.5208271,20.723 38.7665,20.723 C39.4695035,20.723 40.1077471,20.8494154 40.68125,21.10225 C41.2547529,21.3550846 41.744998,21.7250809 42.152,22.21225 C42.559002,22.6994191 42.8734989,23.2975798 43.0955,24.00675 C43.3175011,24.7159202 43.4285,25.5329954 43.4285,26.458 C43.4285,26.6923345 43.4192501,26.9297488 43.40075,27.17025 C43.3822499,27.4107512 43.3606668,27.6604987 43.336,27.9195 L41.9115,40 L37.342,40 C37.5886679,37.9156562 37.7983325,36.1489239 37.971,34.69975 C38.1436675,33.2505761 38.2854994,32.0450048 38.3965,31.083 C38.5075006,30.1209952 38.593833,29.3655861 38.6555,28.81675 C38.717167,28.2679139 38.7634165,27.8516681 38.79425,27.568 C38.8250835,27.2843319 38.8435833,27.0962505 38.84975,27.00375 C38.8559167,26.9112495 38.859,26.834167 38.859,26.7725 C38.859,25.9584959 38.7110015,25.3695852 38.415,25.00575 C38.1189985,24.6419148 37.6565031,24.46 37.0275,24.46 C36.5218308,24.46 35.9976694,24.6079985 35.455,24.904 C34.9123306,25.2000015 34.3943358,25.6193306 33.901,26.162 C33.4076642,26.7046694 32.957502,27.3583295 32.5505,28.123 C32.143498,28.8876705 31.8105013,29.738662 31.5515,30.676 L30.5155,40 L25.946,40 Z M60.689,25.0335 C60.5533327,25.2061675 60.4207506,25.3418328 60.29125,25.4405 C60.1617494,25.5391672 59.9736679,25.5885 59.727,25.5885 C59.4926655,25.5885 59.2645011,25.517584 59.0425,25.37575 C58.8204989,25.233916 58.5553349,25.0735842 58.247,24.89475 C57.9386651,24.7159158 57.5717521,24.555584 57.14625,24.41375 C56.7207479,24.271916 56.1935031,24.201 55.5645,24.201 C54.7628293,24.201 54.0598364,24.3459152 53.4555,24.63575 C52.8511636,24.9255848 52.3485853,25.3418306 51.94775,25.8845 C51.5469147,26.4271694 51.2478343,27.0839128 51.0505,27.85475 C50.8531657,28.6255872 50.7545,29.4981618 50.7545,30.4725 C50.7545,31.4838384 50.8624156,32.3841627 51.07825,33.1735 C51.2940844,33.9628373 51.605498,34.6257473 52.0125,35.16225 C52.419502,35.6987527 52.9128304,36.1057486 53.4925,36.38325 C54.0721696,36.6607514 54.7258297,36.7995 55.4535,36.7995 C56.1811703,36.7995 56.7700811,36.7100842 57.22025,36.53125 C57.6704189,36.3524158 58.0496651,36.1550844 58.358,35.93925 C58.6663349,35.7234156 58.9345822,35.5260842 59.16275,35.34725 C59.3909178,35.1684158 59.6468319,35.079 59.9305,35.079 C60.3005019,35.079 60.5779991,35.2208319 60.763,35.5045 L62.0765,37.1695 C61.5708308,37.761503 61.022003,38.2579147 60.43,38.65875 C59.837997,39.0595853 59.2244198,39.3802488 58.58925,39.62075 C57.9540802,39.8612512 57.2973367,40.0308328 56.619,40.1295 C55.9406633,40.2281672 55.2685033,40.2775 54.6025,40.2775 C53.4308275,40.2775 52.3270052,40.0585855 51.291,39.62075 C50.2549948,39.1829145 49.3515872,38.5446709 48.58075,37.706 C47.8099128,36.8673291 47.1994189,35.8405894 46.74925,34.62575 C46.2990811,33.4109106 46.074,32.0265078 46.074,30.4725 C46.074,29.0788264 46.2744147,27.7869226 46.67525,26.59675 C47.0760853,25.4065774 47.6649961,24.3767543 48.442,23.50725 C49.2190039,22.6377457 50.1809943,21.9563358 51.328,21.463 C52.4750057,20.9696642 53.7946592,20.723 55.287,20.723 C56.7053404,20.723 57.9479113,20.9511644 59.01475,21.4075 C60.0815887,21.8638356 61.0404957,22.5174957 61.8915,23.3685 L60.689,25.0335 Z M64.9995,40 L64.9995,12.509 L69.569,12.509 L69.569,23.0725 C70.3090037,22.3694965 71.1229956,21.8021688 72.011,21.3705 C72.8990044,20.9388312 73.9411607,20.723 75.1375,20.723 C76.1735052,20.723 77.0923293,20.8987482 77.894,21.25025 C78.6956707,21.6017518 79.3647473,22.0950802 79.90125,22.73025 C80.4377527,23.3654198 80.8447486,24.1239123 81.12225,25.00575 C81.3997514,25.8875877 81.5385,26.858828 81.5385,27.9195 L81.5385,40 L76.969,40 L76.969,27.9195 C76.969,26.7601609 76.7007527,25.8629198 76.16425,25.22775 C75.6277473,24.5925802 74.8230054,24.275 73.75,24.275 C72.9606627,24.275 72.2206701,24.4538315 71.53,24.8115 C70.8393299,25.1691685 70.1856698,25.6563303 69.569,26.273 L69.569,40 L64.9995,40 Z M100.908,40 L98.8545,40 C98.4228312,40 98.0836679,39.9352506 97.837,39.80575 C97.5903321,39.6762494 97.4053339,39.4141686 97.282,39.0195 L96.875,37.669 C96.3939976,38.1006688 95.9222523,38.479915 95.45975,38.80675 C94.9972477,39.133585 94.5193358,39.4079989 94.026,39.63 C93.5326642,39.8520011 93.0085028,40.0184994 92.4535,40.1295 C91.8984972,40.2405006 91.2818367,40.296 90.6035,40.296 C89.8018293,40.296 89.0618367,40.1880844 88.3835,39.97225 C87.7051633,39.7564156 87.1224191,39.4326688 86.63525,39.001 C86.1480809,38.5693312 85.7688347,38.0328365 85.4975,37.3915 C85.2261653,36.7501635 85.0905,36.0040043 85.0905,35.153 C85.0905,34.4376631 85.2785815,33.7315868 85.65475,33.03475 C86.0309185,32.3379132 86.656829,31.7089195 87.5325,31.14775 C88.408171,30.5865805 89.5736594,30.1210019 91.029,29.751 C92.4843406,29.3809982 94.2911559,29.1713336 96.4495,29.122 L96.4495,28.012 C96.4495,26.7416603 96.1812527,25.8012531 95.64475,25.19075 C95.1082473,24.5802469 94.3281718,24.275 93.3045,24.275 C92.5644963,24.275 91.9478358,24.3613325 91.4545,24.534 C90.9611642,24.7066675 90.5325852,24.9009156 90.16875,25.11675 C89.8049148,25.3325844 89.4688349,25.5268325 89.1605,25.6995 C88.8521651,25.8721675 88.5130018,25.9585 88.143,25.9585 C87.8346651,25.9585 87.5695011,25.8783341 87.3475,25.718 C87.1254989,25.5576659 86.9466673,25.3603345 86.811,25.126 L85.9785,23.6645 C88.1615109,21.66649 90.7946513,20.6675 93.878,20.6675 C94.9880055,20.6675 95.9777457,20.8494148 96.84725,21.21325 C97.7167543,21.5770852 98.4536636,22.0827468 99.058,22.73025 C99.6623364,23.3777532 100.121748,24.1516622 100.43625,25.052 C100.750752,25.9523378 100.908,26.9389946 100.908,28.012 L100.908,40 Z M92.028,37.151 C92.496669,37.151 92.9283314,37.1078338 93.323,37.0215 C93.7176686,36.9351662 94.0907482,36.8056675 94.44225,36.633 C94.7937518,36.4603325 95.132915,36.2475846 95.45975,35.99475 C95.786585,35.7419154 96.1164983,35.4428351 96.4495,35.0975 L96.4495,31.897 C95.1174933,31.958667 94.0044211,32.0727492 93.11025,32.23925 C92.2160789,32.4057508 91.4976694,32.6184987 90.955,32.8775 C90.4123306,33.1365013 90.0269178,33.4386649 89.79875,33.784 C89.5705822,34.1293351 89.4565,34.505498 89.4565,34.9125 C89.4565,35.7141707 89.6939143,36.2876649 90.16875,36.633 C90.6435857,36.9783351 91.2633295,37.151 92.028,37.151 Z M105.4035,40 L105.4035,21.019 L108.086,21.019 C108.554669,21.019 108.881499,21.1053325 109.0665,21.278 C109.251501,21.4506675 109.374833,21.7466646 109.4365,22.166 L109.714,24.46 C110.392337,23.2883275 111.187829,22.3633367 112.1005,21.685 C113.013171,21.0066633 114.036828,20.6675 115.1715,20.6675 C116.108838,20.6675 116.88583,20.8833312 117.5025,21.315 L116.9105,24.7375 C116.8735,24.9595011 116.793334,25.1167495 116.67,25.20925 C116.546666,25.3017505 116.380168,25.348 116.1705,25.348 C115.985499,25.348 115.732668,25.3048338 115.412,25.2185 C115.091332,25.1321662 114.665836,25.089 114.1355,25.089 C113.185829,25.089 112.371837,25.3510807 111.6935,25.87525 C111.015163,26.3994193 110.441669,27.1671616 109.973,28.1785 L109.973,40 L105.4035,40 Z M127.0855,20.686 C127.899504,20.686 128.664163,20.7692492 129.3795,20.93575 C130.094837,21.1022508 130.748497,21.3458317 131.3405,21.6665 L136.798,21.6665 L136.798,23.3685 C136.798,23.6521681 136.724001,23.8741659 136.576,24.0345 C136.427999,24.1948341 136.175168,24.305833 135.8175,24.3675 L134.1155,24.682 C134.238834,25.0026683 134.334416,25.3418315 134.40225,25.6995 C134.470084,26.0571685 134.504,26.4333314 134.504,26.828 C134.504,27.765338 134.315919,28.6132462 133.93975,29.37175 C133.563581,30.1302538 133.045587,30.774664 132.38575,31.305 C131.725913,31.835336 130.942755,32.2454152 130.03625,32.53525 C129.129745,32.8250848 128.146172,32.97 127.0855,32.97 C126.370163,32.97 125.673337,32.9021673 124.995,32.7665 C124.402997,33.1241685 124.107,33.5249978 124.107,33.969 C124.107,34.3513352 124.282748,34.6319158 124.63425,34.81075 C124.985752,34.9895842 125.448247,35.1159996 126.02175,35.19 C126.595253,35.2640004 127.24583,35.3102499 127.9735,35.32875 C128.70117,35.3472501 129.44733,35.387333 130.212,35.449 C130.97667,35.510667 131.72283,35.6185826 132.4505,35.77275 C133.17817,35.9269174 133.828747,36.1704983 134.40225,36.5035 C134.975753,36.8365017 135.438248,37.2897471 135.78975,37.86325 C136.141252,38.4367529 136.317,39.1736622 136.317,40.074 C136.317,40.9126709 136.110419,41.7266627 135.69725,42.516 C135.284081,43.3053373 134.685921,44.0083303 133.90275,44.625 C133.119579,45.2416697 132.160672,45.7380815 131.026,46.11425 C129.891328,46.4904185 128.596341,46.6785 127.141,46.6785 C125.697993,46.6785 124.446172,46.5397514 123.3855,46.26225 C122.324828,45.9847486 121.446087,45.6147523 120.74925,45.15225 C120.052413,44.6897477 119.531335,44.1563364 119.186,43.552 C118.840665,42.9476636 118.668,42.3186699 118.668,41.665 C118.668,40.7769956 118.939331,40.0308364 119.482,39.4265 C120.024669,38.8221636 120.776995,38.3411685 121.739,37.9835 C121.270331,37.7244987 120.894168,37.3791688 120.6105,36.9475 C120.326832,36.5158312 120.185,35.9546701 120.185,35.264 C120.185,34.9803319 120.234333,34.6874182 120.333,34.38525 C120.431667,34.0830818 120.582749,33.7840015 120.78625,33.488 C120.989751,33.1919985 121.245665,32.911418 121.554,32.64625 C121.862335,32.381082 122.226165,32.1436677 122.6455,31.934 C121.683495,31.4159974 120.928086,30.7253377 120.37925,29.862 C119.830414,28.9986624 119.556,27.9873391 119.556,26.828 C119.556,25.890662 119.744081,25.0427538 120.12025,24.28425 C120.496419,23.5257462 121.02058,22.8782527 121.69275,22.34175 C122.36492,21.8052473 123.160412,21.3951681 124.07925,21.1115 C124.998088,20.8278319 126.000161,20.686 127.0855,20.686 Z M132.099,40.851 C132.099,40.4809982 131.988001,40.1788345 131.766,39.9445 C131.543999,39.7101655 131.241835,39.5282506 130.8595,39.39875 C130.477165,39.2692494 130.030086,39.173667 129.51825,39.112 C129.006414,39.050333 128.463753,39.0040835 127.89025,38.97325 C127.316747,38.9424165 126.724753,38.9115835 126.11425,38.88075 C125.503747,38.8499165 124.914836,38.7975004 124.3475,38.7235 C123.829497,39.0071681 123.413252,39.3432481 123.09875,39.73175 C122.784248,40.1202519 122.627,40.5673308 122.627,41.073 C122.627,41.4060017 122.710249,41.7174152 122.87675,42.00725 C123.043251,42.2970848 123.308415,42.5468323 123.67225,42.7565 C124.036085,42.9661677 124.50783,43.1295827 125.0875,43.24675 C125.66717,43.3639173 126.376329,43.4225 127.215,43.4225 C128.066004,43.4225 128.79983,43.3577506 129.4165,43.22825 C130.03317,43.0987494 130.541915,42.9199178 130.94275,42.69175 C131.343585,42.4635822 131.636499,42.1922516 131.8215,41.87775 C132.006501,41.5632484 132.099,41.2210019 132.099,40.851 Z M127.0855,30.047 C127.652836,30.047 128.146165,29.9699174 128.5655,29.81575 C128.984835,29.6615826 129.333249,29.4488347 129.61075,29.1775 C129.888251,28.9061653 130.097916,28.5793352 130.23975,28.197 C130.381584,27.8146648 130.4525,27.3953356 130.4525,26.939 C130.4525,26.001662 130.171919,25.2585861 129.61075,24.70975 C129.049581,24.1609139 128.207839,23.8865 127.0855,23.8865 C125.963161,23.8865 125.121419,24.1609139 124.56025,24.70975 C123.999081,25.2585861 123.7185,26.001662 123.7185,26.939 C123.7185,27.3830022 123.789416,27.7961648 123.93125,28.1785 C124.073084,28.5608352 124.282749,28.8907486 124.56025,29.16825 C124.837751,29.4457514 125.189248,29.6615826 125.61475,29.81575 C126.040252,29.9699174 126.530497,30.047 127.0855,30.047 Z M147.5095,20.723 C148.705839,20.723 149.806578,20.9141648 150.81175,21.2965 C151.816922,21.6788352 152.68333,22.236913 153.411,22.97075 C154.13867,23.704587 154.705998,24.6049113 155.113,25.67175 C155.520002,26.7385887 155.7235,27.9564932 155.7235,29.3255 C155.7235,29.6708351 155.708083,29.9575822 155.67725,30.18575 C155.646417,30.4139178 155.590917,30.5927494 155.51075,30.72225 C155.430583,30.8517506 155.322667,30.9442497 155.187,30.99975 C155.051333,31.0552503 154.878668,31.083 154.669,31.083 L142.94,31.083 C143.075667,33.0316764 143.599829,34.4623288 144.5125,35.375 C145.425171,36.2876712 146.633826,36.744 148.1385,36.744 C148.878504,36.744 149.516747,36.6576675 150.05325,36.485 C150.589753,36.3123325 151.058415,36.1211677 151.45925,35.9115 C151.860085,35.7018323 152.211582,35.5106675 152.51375,35.338 C152.815918,35.1653325 153.108832,35.079 153.3925,35.079 C153.577501,35.079 153.737833,35.1159996 153.8735,35.19 C154.009167,35.2640004 154.126333,35.3688327 154.225,35.5045 L155.557,37.1695 C155.051331,37.761503 154.484003,38.2579147 153.855,38.65875 C153.225997,39.0595853 152.569253,39.3802488 151.88475,39.62075 C151.200247,39.8612512 150.50342,40.0308328 149.79425,40.1295 C149.08508,40.2281672 148.397503,40.2775 147.7315,40.2775 C146.411827,40.2775 145.184672,40.0585855 144.05,39.62075 C142.915328,39.1829145 141.928671,38.535421 141.09,37.67825 C140.251329,36.821079 139.591502,35.760423 139.1105,34.49625 C138.629498,33.232077 138.389,31.7675083 138.389,30.1025 C138.389,28.8074935 138.598665,27.589589 139.018,26.44875 C139.437335,25.307911 140.038579,24.3150876 140.82175,23.47025 C141.604921,22.6254124 142.560744,21.9563358 143.68925,21.463 C144.817756,20.9696642 146.09116,20.723 147.5095,20.723 Z M147.602,23.9975 C146.269993,23.9975 145.227837,24.3736629 144.4755,25.126 C143.723163,25.8783371 143.242168,26.9451598 143.0325,28.3265 L151.6165,28.3265 C151.6165,27.734497 151.536334,27.1764193 151.376,26.65225 C151.215666,26.1280807 150.969002,25.6686686 150.636,25.274 C150.302998,24.8793314 149.883669,24.5679178 149.378,24.33975 C148.872331,24.1115822 148.280337,23.9975 147.602,23.9975 Z" id="incharge" fill="#FFFFFF"></path>
        </g>
    </g>
</svg>